<svg xmlns="http://www.w3.org/2000/svg" width="64" height="64" viewBox="0 0 64 64">
    <rect width="64" height="64" rx="14.08" fill="#1c1813"/>
    <g transform="translate(12.16,12.82) scale(1.653)">
  <path d="M12 3.6 C 12.7 5.6 13.8 6.4 14.9 7.4 C 16.8 9.1 17.8 11.1 17.8 13.3
           C 17.8 16.6 15.2 18.9 12 18.9 C 8.8 18.9 6.2 16.6 6.2 13.3
           C 6.2 11.1 7.2 9.1 9.1 7.4 C 10.2 6.4 11.3 5.6 12 3.6 Z" fill="#e3b34a"/>
  <path d="M8.6 18.9 H15.4 L14.8 21.4 H9.2 Z" fill="#e3b34a"/>
  <rect x="7.7" y="21.2" width="8.6" height="1.4" rx="0.5" fill="#e3b34a"/>
  <g stroke="#e3b34a" stroke-width="0.75" stroke-linecap="round">
    <line x1="12" y1="0.6" x2="12" y2="3.6"/>
    <line x1="10.7" y1="1.5" x2="13.3" y2="1.5"/>
    <line x1="10.1" y1="2.3" x2="13.9" y2="2.3"/>
    <line x1="10.7" y1="3.2" x2="13.3" y2="2.8"/>
  </g></g>
  </svg>